<svg viewBox="0 0 500 500" xmlns:xlink="http://www.w3.org/1999/xlink" height="500pt" xmlns="http://www.w3.org/2000/svg" width="500pt" version="1.1"><defs>
<path d="M0.00 0.00 L500.00 0.00 L500.00 500.00 L0.00 500.00 L0.00 0.00" id="p1" />
<path d="M81.20 65.86 C86.56 60.77 91.79 55.56 97.38 50.72 C107.88 60.16 117.24 70.79 127.00 80.99 C128.97 82.95 130.73 85.43 133.41 86.45 C159.98 91.11 186.86 94.12 213.31 99.49 C210.33 110.00 209.66 121.01 210.56 131.87 C209.92 132.04 208.62 132.39 207.98 132.56 C202.01 127.72 197.14 121.68 191.11 116.90 C189.06 118.91 187.01 120.94 185.01 123.02 C190.35 131.20 200.26 135.94 203.39 145.57 C209.87 163.03 216.76 180.34 223.07 197.87 C224.22 201.13 225.75 204.40 225.73 207.92 C225.48 210.20 224.29 212.23 223.45 214.33 C218.99 214.61 213.97 215.23 210.88 218.83 C206.43 223.50 206.18 231.57 210.72 236.26 C214.45 240.56 221.21 241.88 226.19 239.01 C229.57 237.26 231.39 233.76 233.26 230.63 C245.84 230.66 258.41 230.60 270.99 230.62 C273.85 234.22 277.18 238.38 282.14 238.75 C290.33 239.91 298.02 231.30 296.09 223.30 C295.06 218.43 291.12 213.77 285.94 213.32 C283.08 213.15 279.97 212.97 277.41 214.48 C274.11 216.23 272.37 219.70 270.36 222.67 C257.45 222.43 244.54 222.73 231.63 222.60 C231.23 221.17 230.42 219.79 230.48 218.28 C232.02 214.41 234.51 211.00 236.64 207.44 C258.76 207.23 280.89 207.41 303.02 207.35 C306.26 207.36 309.47 206.89 312.68 206.51 C318.99 188.69 324.59 170.62 330.81 152.76 C335.01 141.26 338.42 129.35 338.50 117.01 C340.36 116.86 342.22 116.70 344.09 116.61 C361.99 119.04 379.93 121.68 397.83 124.32 C402.13 124.81 406.39 125.63 410.62 126.55 C403.27 145.65 395.55 164.62 387.85 183.58 C378.36 207.78 368.47 231.83 358.81 255.96 C358.00 257.55 357.28 260.14 354.98 259.62 C302.96 259.67 250.95 259.66 198.94 259.64 C192.82 268.77 187.99 278.69 182.23 288.04 C183.91 290.90 185.62 293.75 187.31 296.60 C219.72 296.40 252.14 296.83 284.55 296.58 C286.89 292.12 289.20 287.47 293.01 284.04 C299.46 278.23 308.31 274.89 317.02 275.69 C323.90 276.57 330.74 279.33 335.69 284.30 C344.03 292.07 347.71 304.76 344.07 315.67 C340.38 328.98 326.77 338.79 312.95 337.73 C305.62 337.97 298.61 334.62 293.18 329.88 C289.31 326.54 286.92 321.92 284.65 317.42 C252.37 317.52 220.08 317.37 187.79 317.40 C184.23 327.96 175.12 336.50 164.06 338.49 C157.93 338.96 151.44 339.27 145.74 336.56 C136.84 332.90 130.00 324.79 127.80 315.44 C123.88 301.38 131.94 285.22 145.36 279.60 C151.47 276.43 158.54 277.23 165.16 277.52 C168.19 272.67 171.14 267.76 173.92 262.75 C174.75 261.00 175.93 259.01 175.05 257.05 C156.08 206.34 137.13 155.61 118.35 104.82 C116.85 100.91 113.30 98.43 110.51 95.50 C100.78 85.58 90.84 75.87 81.20 65.86" id="p2" />
<path d="M253.24 60.18 C263.69 56.37 275.17 55.47 286.08 57.67 C306.03 61.43 323.82 75.24 332.41 93.63 C335.86 100.47 337.10 108.10 338.47 115.57 C340.34 115.90 342.21 116.25 344.09 116.61 C342.22 116.70 340.36 116.86 338.50 117.01 C338.42 129.35 335.01 141.26 330.81 152.76 C330.91 152.05 331.11 150.61 331.21 149.90 C327.89 149.46 324.57 149.03 321.26 148.54 C324.36 145.83 326.00 142.01 327.03 138.11 C322.06 139.30 317.29 141.18 312.62 143.23 C312.54 144.58 312.47 145.93 312.39 147.28 C304.65 146.22 296.88 145.38 289.15 144.31 C296.20 144.79 303.34 144.08 309.67 140.72 C309.16 130.99 307.96 121.15 304.13 112.11 C294.74 115.07 285.26 117.86 276.27 121.91 C278.45 129.10 280.84 136.23 283.68 143.20 C281.05 142.76 278.41 142.43 275.79 142.02 C277.11 142.05 278.44 142.07 279.76 142.06 C278.04 135.54 276.02 129.08 273.04 123.01 C263.51 125.91 254.10 129.22 244.90 133.05 C245.84 134.76 246.79 136.47 247.76 138.18 C246.23 137.96 244.70 137.73 243.18 137.48 C242.91 136.63 242.38 134.93 242.11 134.08 C240.17 134.82 238.24 135.58 236.29 136.25 C234.13 135.94 231.97 135.60 229.80 135.37 C233.53 133.99 237.13 132.29 240.76 130.67 C238.29 121.32 236.29 111.85 235.33 102.22 C230.57 103.65 225.55 104.63 221.26 107.25 C219.83 107.98 219.46 109.65 219.15 111.08 C217.74 118.45 218.42 126.01 219.67 133.35 C222.15 133.94 224.63 134.56 227.13 135.09 C220.73 134.36 214.33 133.60 207.98 132.56 C208.62 132.39 209.92 132.04 210.56 131.87 C209.66 121.01 210.33 110.00 213.31 99.49 C214.95 97.03 216.72 94.62 217.77 91.82 C224.02 76.61 237.71 65.12 253.24 60.18" id="p3" />
<path d="M275.16 65.49 C285.44 65.01 295.90 68.43 304.25 74.39 C299.93 76.02 295.68 78.09 291.08 78.77 C289.26 78.22 288.12 76.47 286.74 75.25 C283.30 71.52 279.12 68.62 275.16 65.49" id="p4" />
<path d="M257.29 67.74 C260.96 67.01 264.82 64.89 268.55 66.41 C275.87 69.13 281.83 74.53 286.98 80.25 C279.76 83.40 272.26 85.85 264.77 88.30 C261.91 81.58 259.74 74.61 257.29 67.74" id="p5" />
<path d="M244.73 74.69 C246.69 71.38 250.73 70.47 253.98 68.91 C256.43 75.78 259.22 82.55 261.07 89.62 C253.86 92.39 246.55 94.88 239.17 97.13 C239.01 89.33 240.64 81.39 244.73 74.69" id="p6" />
<path d="M293.00 81.94 C298.24 80.55 303.16 77.58 308.64 77.32 C316.48 83.22 322.52 91.57 326.03 100.72 C319.66 103.33 313.07 105.32 306.68 107.85 C304.99 104.32 303.45 100.72 301.81 97.17 C299.36 91.82 295.93 87.02 293.00 81.94" id="p7" />
<path d="M223.06 99.00 C226.54 90.81 231.87 83.26 238.92 77.77 C237.24 84.66 235.54 91.61 235.40 98.75 C231.38 100.03 227.16 99.59 223.06 99.00" id="p8" />
<path d="M265.96 91.87 C273.55 88.59 281.49 86.23 289.21 83.26 C295.39 91.04 300.24 99.97 303.07 109.51 C301.21 109.62 299.35 109.77 297.49 109.73 C289.68 109.23 282.02 107.44 274.21 106.86 C272.58 106.37 270.71 105.75 269.96 104.07 C268.00 100.24 267.22 95.95 265.96 91.87" id="p9" />
<path d="M244.65 98.80 C250.62 96.97 256.46 94.72 262.47 93.04 C264.07 97.12 265.59 101.23 266.82 105.43 C266.08 105.31 264.58 105.05 263.84 104.93 C255.85 103.73 247.89 102.15 239.82 101.67 C241.19 100.36 242.79 99.29 244.65 98.80" id="p10" />
<path d="M221.08 100.93 C223.47 100.26 225.92 99.94 228.40 99.93 C226.49 101.61 224.27 102.88 221.97 103.96 C221.68 102.94 221.38 101.93 221.08 100.93" id="p11" />
<path d="M221.26 107.25 C225.55 104.63 230.57 103.65 235.33 102.22 C236.29 111.85 238.29 121.32 240.76 130.67 C237.13 132.29 233.53 133.99 229.80 135.37 C229.13 135.30 227.79 135.16 227.13 135.09 C224.63 134.56 222.15 133.94 219.67 133.35 C218.42 126.01 217.74 118.45 219.15 111.08 C219.46 109.65 219.83 107.98 221.26 107.25" id="p12" />
<path d="M238.32 101.65 C238.69 101.65 239.44 101.67 239.82 101.67 C247.89 102.15 255.85 103.73 263.84 104.93 C269.90 107.04 270.01 114.59 271.94 119.75 C262.84 123.54 253.47 126.65 244.14 129.82 C240.28 120.92 239.46 111.16 238.32 101.65" id="p13" />
<path d="M309.15 110.27 C315.15 108.26 321.12 106.14 327.11 104.09 C328.26 107.44 328.98 110.92 329.43 114.43 C328.57 114.32 326.85 114.11 325.99 114.00 C320.71 113.11 315.39 112.32 310.02 112.23 C309.80 111.74 309.37 110.76 309.15 110.27" id="p14" />
<path d="M271.10 106.60 C271.88 106.67 273.43 106.80 274.21 106.86 C282.02 107.44 289.68 109.23 297.49 109.73 C291.10 114.55 282.87 115.54 275.71 118.80 C273.39 115.07 271.97 110.89 271.10 106.60" id="p15" />
<path d="M276.27 121.91 C285.26 117.86 294.74 115.07 304.13 112.11 C307.96 121.15 309.16 130.99 309.67 140.72 C303.34 144.08 296.20 144.79 289.15 144.31 C287.33 143.93 285.51 143.52 283.68 143.20 C280.84 136.23 278.45 129.10 276.27 121.91" id="p16" />
<path d="M308.08 112.16 C308.56 112.18 309.54 112.21 310.02 112.23 C315.39 112.32 320.71 113.11 325.99 114.00 C327.22 114.33 328.42 114.74 329.63 115.15 C329.71 120.23 330.06 125.37 329.19 130.41 C328.85 131.79 328.60 133.45 327.26 134.23 C322.80 136.90 317.60 137.90 312.62 139.17 C312.24 130.00 310.00 121.09 308.08 112.16" id="p17" />
<path d="M185.01 123.02 C187.01 120.94 189.06 118.91 191.11 116.90 C197.14 121.68 202.01 127.72 207.98 132.56 C214.33 133.60 220.73 134.36 227.13 135.09 C227.79 135.16 229.13 135.30 229.80 135.37 C231.97 135.60 234.13 135.94 236.29 136.25 C238.59 136.64 240.87 137.11 243.18 137.48 C244.70 137.73 246.23 137.96 247.76 138.18 C257.11 139.42 266.44 140.80 275.79 142.02 C278.41 142.43 281.05 142.76 283.68 143.20 C285.51 143.52 287.33 143.93 289.15 144.31 C296.88 145.38 304.65 146.22 312.39 147.28 C315.36 147.60 318.31 148.07 321.26 148.54 C324.57 149.03 327.89 149.46 331.21 149.90 C331.11 150.61 330.91 152.05 330.81 152.76 C324.59 170.62 318.99 188.69 312.68 206.51 C309.47 206.89 306.26 207.36 303.02 207.35 C280.89 207.41 258.76 207.23 236.64 207.44 C234.51 211.00 232.02 214.41 230.48 218.28 C230.42 219.79 231.23 221.17 231.63 222.60 C244.54 222.73 257.45 222.43 270.36 222.67 C272.37 219.70 274.11 216.23 277.41 214.48 C279.97 212.97 283.08 213.15 285.94 213.32 C291.12 213.77 295.06 218.43 296.09 223.30 C298.02 231.30 290.33 239.91 282.14 238.75 C277.18 238.38 273.85 234.22 270.99 230.62 C258.41 230.60 245.84 230.66 233.26 230.63 C231.39 233.76 229.57 237.26 226.19 239.01 C221.21 241.88 214.45 240.56 210.72 236.26 C206.18 231.57 206.43 223.50 210.88 218.83 C213.97 215.23 218.99 214.61 223.45 214.33 C224.29 212.23 225.48 210.20 225.73 207.92 C225.75 204.40 224.22 201.13 223.07 197.87 C216.76 180.34 209.87 163.03 203.39 145.57 C200.26 135.94 190.35 131.20 185.01 123.02" id="p18" />
<path d="M244.90 133.05 C254.10 129.22 263.51 125.91 273.04 123.01 C276.02 129.08 278.04 135.54 279.76 142.06 C278.44 142.07 277.11 142.05 275.79 142.02 C266.44 140.80 257.11 139.42 247.76 138.18 C246.79 136.47 245.84 134.76 244.90 133.05" id="p19" />
<path d="M236.29 136.25 C238.24 135.58 240.17 134.82 242.11 134.08 C242.38 134.93 242.91 136.63 243.18 137.48 C240.87 137.11 238.59 136.64 236.29 136.25" id="p20" />
<path d="M312.62 143.23 C317.29 141.18 322.06 139.30 327.03 138.11 C326.00 142.01 324.36 145.83 321.26 148.54 C318.31 148.07 315.36 147.60 312.39 147.28 C312.47 145.93 312.54 144.58 312.62 143.23" id="p21" />
<path d="M307.28 144.01 C308.89 142.91 310.81 145.58 308.86 146.46 C307.25 147.55 305.34 144.90 307.28 144.01" id="p22" />
<path d="M334.44 364.50 C337.13 364.56 339.83 364.56 342.52 364.53 C342.61 382.95 342.59 401.36 342.60 419.78 C340.72 419.54 338.71 419.77 336.95 418.99 C335.99 417.77 335.28 416.38 334.50 415.05 C331.13 417.51 327.44 420.24 323.01 419.85 C318.57 420.21 314.00 418.16 311.74 414.26 C308.30 408.88 308.10 402.15 308.80 395.99 C309.63 388.95 314.97 382.17 322.23 381.16 C326.53 380.09 330.61 382.39 334.44 384.02 C334.50 377.51 334.48 371.00 334.44 364.50" id="p23" />
<path d="M143.41 370.40 C153.35 363.44 167.47 364.52 176.74 372.15 C175.45 374.12 174.16 376.09 172.89 378.07 C168.25 375.68 163.45 372.78 157.99 373.35 C150.51 373.18 143.91 379.07 142.29 386.21 C140.36 394.04 141.45 403.57 147.86 409.11 C152.13 413.05 158.33 413.23 163.78 412.54 C167.33 411.93 170.22 409.61 173.11 407.64 C174.60 409.18 176.12 410.71 177.66 412.22 C171.73 419.80 161.09 421.64 152.09 419.87 C143.82 418.24 136.85 411.76 134.26 403.80 C130.24 392.30 133.04 377.63 143.41 370.40" id="p24" />
<path d="M178.93 366.41 C181.81 366.43 184.70 366.45 187.58 366.46 C191.15 373.80 193.75 381.54 196.85 389.06 C199.50 395.69 202.23 402.30 204.41 409.10 C207.00 401.05 210.22 393.23 213.47 385.43 C216.14 379.11 217.79 372.37 221.19 366.37 C224.12 366.38 227.06 366.39 229.99 366.39 C222.35 383.96 215.94 402.03 208.42 419.64 C205.73 419.62 203.05 419.62 200.37 419.66 C193.36 401.85 185.80 384.27 178.93 366.41" id="p25" />
<path d="M53.08 366.56 C54.07 366.56 56.03 366.57 57.02 366.58 C59.99 376.33 63.12 386.04 66.10 395.79 C68.45 403.67 71.43 411.37 73.07 419.45 C71.64 418.81 70.22 418.18 68.81 417.54 C63.90 400.45 58.20 383.59 53.08 366.56" id="p26" />
<path d="M57.02 366.58 C59.94 366.60 62.94 366.20 65.80 366.93 C67.30 368.09 67.56 370.16 68.20 371.83 C70.70 380.91 73.68 389.86 75.87 399.03 C76.58 398.07 77.29 397.11 78.00 396.17 C77.41 399.59 77.49 403.08 77.87 406.52 C80.78 400.52 82.51 394.06 84.63 387.77 C87.02 380.58 89.38 373.38 91.82 366.21 C93.85 366.39 95.88 366.47 97.89 366.82 C100.03 368.84 100.44 371.96 101.47 374.60 C104.30 382.72 106.30 391.18 110.29 398.85 C110.83 401.34 111.42 403.82 112.07 406.29 C116.25 393.06 119.43 379.54 123.93 366.41 C126.82 366.48 129.71 366.51 132.60 366.59 C127.46 384.35 121.60 401.89 116.44 419.64 C113.67 419.69 110.90 419.73 108.13 419.84 C104.06 406.35 99.53 393.00 95.02 379.66 C94.47 382.07 93.95 384.49 93.38 386.91 C92.32 388.69 91.14 390.43 90.50 392.42 C87.65 401.55 84.83 410.70 81.53 419.67 C77.67 420.08 73.80 420.33 69.92 420.43 C69.55 419.46 69.18 418.50 68.81 417.54 C70.22 418.18 71.64 418.81 73.07 419.45 C71.43 411.37 68.45 403.67 66.10 395.79 C63.12 386.04 59.99 376.33 57.02 366.58" id="p27" />
<path d="M87.64 367.66 C88.84 366.71 90.38 366.53 91.82 366.21 C89.38 373.38 87.02 380.58 84.63 387.77 C82.51 394.06 80.78 400.52 77.87 406.52 C77.49 403.08 77.41 399.59 78.00 396.17 C80.06 389.57 82.26 383.01 84.45 376.46 C85.45 373.51 86.05 370.38 87.64 367.66" id="p28" />
<path d="M110.29 398.85 C113.64 388.16 116.22 377.23 119.93 366.65 C121.26 366.56 122.60 366.48 123.93 366.41 C119.43 379.54 116.25 393.06 112.07 406.29 C111.42 403.82 110.83 401.34 110.29 398.85" id="p29" />
<path d="M93.38 386.91 C93.95 384.49 94.47 382.07 95.02 379.66 C99.53 393.00 104.06 406.35 108.13 419.84 C106.82 419.76 105.51 419.70 104.20 419.64 C100.73 408.69 97.31 397.70 93.38 386.91" id="p30" />
<path d="M240.45 381.73 C245.53 380.89 251.36 380.95 255.44 384.55 C260.47 388.46 261.75 395.23 261.36 401.26 C252.58 401.58 243.79 401.33 235.01 401.45 C235.52 405.78 236.64 410.89 241.00 412.92 C246.63 415.31 252.58 412.65 257.78 410.41 C258.80 411.69 259.83 412.96 260.85 414.24 C253.37 422.03 238.99 422.70 231.76 414.24 C227.04 408.88 226.65 401.18 227.77 394.46 C229.20 388.37 234.33 383.12 240.45 381.73" id="p31" />
<path d="M276.09 385.85 C279.07 383.74 282.21 381.30 286.05 381.30 C290.21 380.89 294.83 382.15 297.38 385.66 C300.32 389.80 300.32 395.13 300.31 400.00 C300.18 406.54 300.59 413.09 299.88 419.61 C297.38 419.58 294.88 419.57 292.39 419.59 C292.34 412.04 292.43 404.50 292.37 396.95 C292.22 394.02 292.11 390.37 289.38 388.58 C284.98 386.05 278.71 388.04 276.18 392.26 C275.20 401.33 276.03 410.54 275.84 419.66 C273.33 419.61 270.82 419.59 268.31 419.58 C268.03 411.39 268.50 403.19 267.93 395.01 C267.67 390.53 267.76 386.04 268.07 381.57 C269.65 381.63 271.24 381.63 272.82 381.86 C274.32 382.78 275.06 384.48 276.09 385.85" id="p32" />
<path d="M362.54 381.76 C368.44 380.79 375.43 380.52 380.15 384.84 C384.95 388.66 386.95 395.04 386.72 401.01 C386.89 407.38 383.97 414.05 378.42 417.45 C374.26 420.20 369.00 419.98 364.24 419.55 C356.95 418.56 351.03 412.20 350.37 404.91 C350.02 400.00 349.71 394.70 352.21 390.25 C354.24 386.12 358.06 382.91 362.54 381.76" id="p33" />
<path d="M409.50 381.26 C411.81 380.14 414.33 381.12 416.67 381.59 C416.48 383.91 416.32 386.23 416.15 388.55 C412.77 388.73 409.05 388.26 406.05 390.15 C403.52 392.27 402.42 395.71 402.52 398.94 C402.49 405.78 402.68 412.61 402.48 419.44 C399.86 419.42 397.24 419.41 394.63 419.41 C394.67 406.79 394.49 394.17 394.69 381.56 C396.87 381.58 399.04 381.63 401.23 381.69 C401.44 383.79 401.63 385.89 401.81 387.99 C404.06 385.44 406.14 382.42 409.50 381.26" id="p34" />
<path d="M426.86 382.05 C433.14 379.23 440.14 381.39 445.61 384.95 C444.77 386.46 443.94 387.97 443.10 389.48 C438.67 388.10 433.45 384.99 429.04 388.07 C427.05 389.20 427.51 391.75 427.18 393.66 C432.77 397.46 440.85 397.10 445.01 402.96 C448.54 408.99 444.44 417.02 438.03 418.97 C431.50 420.68 424.21 419.88 418.70 415.77 C419.50 414.12 420.32 412.50 421.17 410.88 C425.94 412.40 431.21 416.20 436.20 413.24 C439.21 411.93 439.70 406.96 436.60 405.45 C431.65 402.58 424.89 402.74 421.17 397.88 C417.30 392.40 420.67 384.08 426.86 382.05" id="p35" />
<path d="M241.60 387.61 C244.69 386.95 248.48 386.69 250.97 389.01 C253.20 390.77 253.61 393.74 254.33 396.31 C247.93 396.56 241.51 396.60 235.11 396.33 C236.00 392.73 237.71 388.76 241.60 387.61" id="p36" />
<path d="M323.47 387.57 C327.21 386.79 332.49 387.10 334.27 391.07 C334.79 395.71 334.47 400.40 334.54 405.06 C335.59 412.84 323.62 416.76 319.06 410.94 C316.44 406.87 316.21 401.71 316.83 397.05 C317.45 393.16 319.41 388.80 323.47 387.57" id="p37" />
<path d="M364.46 387.73 C368.51 386.76 373.52 387.21 376.12 390.88 C378.70 394.66 378.78 399.58 378.39 403.99 C377.91 407.70 376.28 412.02 372.35 413.21 C368.58 414.10 363.76 414.21 361.07 410.93 C357.83 407.06 358.04 401.71 358.41 396.99 C358.73 393.24 360.61 388.95 364.46 387.73" id="p38" /></defs><g stroke-width="10pt">
<use stroke="#fff" xlink:href="#p1" />
<use stroke="#005580" xlink:href="#p2" />
<use stroke="#5e9ab8" xlink:href="#p3" />
<use stroke="#fff" xlink:href="#p4" />
<use stroke="#fff" xlink:href="#p5" />
<use stroke="#fff" xlink:href="#p6" />
<use stroke="#fff" xlink:href="#p7" />
<use stroke="#fff" xlink:href="#p8" />
<use stroke="#fff" xlink:href="#p9" />
<use stroke="#fff" xlink:href="#p10" />
<use stroke="#005580" xlink:href="#p11" />
<use stroke="#005580" xlink:href="#p12" />
<use stroke="#005580" xlink:href="#p13" />
<use stroke="#fff" xlink:href="#p14" />
<use stroke="#005580" xlink:href="#p15" />
<use stroke="#005580" xlink:href="#p16" />
<use stroke="#005580" xlink:href="#p17" />
<use stroke="#fff" xlink:href="#p18" />
<use stroke="#005580" xlink:href="#p19" />
<use stroke="#005580" xlink:href="#p20" />
<use stroke="#005580" xlink:href="#p21" />
<use stroke="#005580" xlink:href="#p22" />
<use stroke="#5e9ab8" xlink:href="#p23" />
<use stroke="#5e9ab8" xlink:href="#p24" />
<use stroke="#5e9ab8" xlink:href="#p25" />
<use stroke="#005580" xlink:href="#p26" />
<use stroke="#5e9ab8" xlink:href="#p27" />
<use stroke="#005580" xlink:href="#p28" />
<use stroke="#005580" xlink:href="#p29" />
<use stroke="#005580" xlink:href="#p30" />
<use stroke="#5e9ab8" xlink:href="#p31" />
<use stroke="#5e9ab8" xlink:href="#p32" />
<use stroke="#5e9ab8" xlink:href="#p33" />
<use stroke="#5e9ab8" xlink:href="#p34" />
<use stroke="#5e9ab8" xlink:href="#p35" />
<use stroke="#fff" xlink:href="#p36" />
<use stroke="#fff" xlink:href="#p37" />
<use stroke="#fff" xlink:href="#p38" /></g><g>
<use xlink:href="#p1" fill="#fff" />
<use xlink:href="#p2" fill="#005580" />
<use xlink:href="#p3" fill="#5e9ab8" />
<use xlink:href="#p4" fill="#fff" />
<use xlink:href="#p5" fill="#fff" />
<use xlink:href="#p6" fill="#fff" />
<use xlink:href="#p7" fill="#fff" />
<use xlink:href="#p8" fill="#fff" />
<use xlink:href="#p9" fill="#fff" />
<use xlink:href="#p10" fill="#fff" />
<use xlink:href="#p11" fill="#005580" />
<use xlink:href="#p12" fill="#005580" />
<use xlink:href="#p13" fill="#005580" />
<use xlink:href="#p14" fill="#fff" />
<use xlink:href="#p15" fill="#005580" />
<use xlink:href="#p16" fill="#005580" />
<use xlink:href="#p17" fill="#005580" />
<use xlink:href="#p18" fill="#fff" />
<use xlink:href="#p19" fill="#005580" />
<use xlink:href="#p20" fill="#005580" />
<use xlink:href="#p21" fill="#005580" />
<use xlink:href="#p22" fill="#005580" />
<use xlink:href="#p23" fill="#5e9ab8" />
<use xlink:href="#p24" fill="#5e9ab8" />
<use xlink:href="#p25" fill="#5e9ab8" />
<use xlink:href="#p26" fill="#005580" />
<use xlink:href="#p27" fill="#5e9ab8" />
<use xlink:href="#p28" fill="#005580" />
<use xlink:href="#p29" fill="#005580" />
<use xlink:href="#p30" fill="#005580" />
<use xlink:href="#p31" fill="#5e9ab8" />
<use xlink:href="#p32" fill="#5e9ab8" />
<use xlink:href="#p33" fill="#5e9ab8" />
<use xlink:href="#p34" fill="#5e9ab8" />
<use xlink:href="#p35" fill="#5e9ab8" />
<use xlink:href="#p36" fill="#fff" />
<use xlink:href="#p37" fill="#fff" />
<use xlink:href="#p38" fill="#fff" /></g></svg>